<?xml version="1.0" encoding="UTF-8"?>
<svg xmlns="http://www.w3.org/2000/svg" xmlns:xlink="http://www.w3.org/1999/xlink" viewBox="0 0 2000 1487.02">
  <defs>
    <style>
      .cls-1 {
        fill: none;
      }

      .cls-2 {
        fill: #f7cc4a;
      }

      .cls-3 {
        mix-blend-mode: multiply;
        opacity: .54;
      }

      .cls-4 {
        isolation: isolate;
      }

      .cls-5 {
        clip-path: url(#clippath-1);
      }

      .cls-6 {
        clip-path: url(#clippath-3);
      }

      .cls-7 {
        clip-path: url(#clippath-4);
      }

      .cls-8 {
        clip-path: url(#clippath-2);
      }

      .cls-9 {
        clip-path: url(#clippath-7);
      }

      .cls-10 {
        clip-path: url(#clippath-6);
      }

      .cls-11 {
        clip-path: url(#clippath-5);
      }

      .cls-12 {
        fill: #f7c83b;
      }

      .cls-13 {
        fill: #fff;
      }

      .cls-14 {
        fill: #f3a11e;
      }

      .cls-15 {
        fill: #f6e257;
      }

      .cls-16 {
        clip-path: url(#clippath);
      }
    </style>
    <clipPath id="clippath">
      <rect class="cls-1" x="570.4" y="75.74" width="544.61" height="544.7"/>
    </clipPath>
    <clipPath id="clippath-1">
      <rect class="cls-1" x="640.35" y="387.63" width="544.73" height="539.36"/>
    </clipPath>
    <clipPath id="clippath-2">
      <rect class="cls-1" x="531.51" y="245.85" width="544.7" height="544.77"/>
    </clipPath>
    <clipPath id="clippath-3">
      <rect class="cls-1" x="727.7" y="0" width="544.62" height="544.62"/>
    </clipPath>
    <clipPath id="clippath-4">
      <rect class="cls-1" x="886.61" y="75.74" width="543.08" height="544.58"/>
    </clipPath>
    <clipPath id="clippath-5">
      <rect class="cls-1" x="924.31" y="245.91" width="544.19" height="544.57"/>
    </clipPath>
    <clipPath id="clippath-6">
      <rect class="cls-1" x="814.79" y="384.04" width="372.78" height="528.63"/>
    </clipPath>
    <clipPath id="clippath-7">
      <rect class="cls-1" x="1069.76" y="382.43" width="289.91" height="543.44"/>
    </clipPath>
  </defs>
  <g class="cls-4">
    <g id="Layer_1" data-name="Layer 1">
      <g>
        <path class="cls-13" d="M1428.14,375.72c7.12-67.2-10.46-137.88-57.95-197.44-46.26-58.01-111.39-92.07-179.63-100.47C1141.44,29.69,1074.19,0,1000.01,0c-74.19,0-141.44,29.68-190.55,77.8-68.24,8.4-133.37,42.47-179.63,100.47-46.26,58-64.98,129.07-57.98,197.47-35.99,58.59-49.96,130.76-33.45,203.09,16.51,72.32,60.41,131.28,118.25,168.45,23.37,64.66,71.08,120.58,137.92,152.76,65.79,31.69,139.61,34.77,205.46,12.56.05.01.09.03.14.05,65.34-21.91,122.42-68.26,155.24-134.34,26.58-52.47,37.75-108.52,29.91-166.34-.15-1.21-.31-2.42-.48-3.62-.14-1.03-.3-2.04-.45-3.06-.22-1.43-.45-2.85-.69-4.27-5.58-33.96-16.63-63.83-31.51-91.53-.43-.83-.87-1.66-1.31-2.48-.03-.05-.06-.11-.09-.17-1.05-1.95-2.1-3.87-3.16-5.77,0,0,0,0,0,0-.09-.17-.18-.32-.28-.48-.76-1.35-1.52-2.68-2.28-4.01-.26-.46-.53-.92-.79-1.37-.56-.97-1.13-1.92-1.7-2.88-.48-.8-.95-1.6-1.43-2.39-.07-.12-.15-.24-.22-.36-3.29-5.43-6.65-10.65-10.1-15.75-.12-.18-.24-.35-.36-.52-.69-1.02-1.39-2.04-2.09-3.05-8.32-12.04-16.29-22.19-22.98-30.3-2.03-2.48-4.1-4.99-6.21-7.51-16.63-20.42-34.64-40.71-53.18-61.9-6.14-7.16-12.08-14.09-17.38-20.29-10.2-11.92-17.78-20.79-20.26-23.74-.01-.02-.03-.04-.05-.06-.21-.25-.39-.47-.52-.62,1.87,1.49,3.75,3.02,5.65,4.59.62.51,1.25,1.05,1.88,1.57,1.29,1.08,2.58,2.15,3.88,3.26.7.6,1.4,1.21,2.1,1.81.05.04.1.09.16.13,1.19,1.03,2.39,2.06,3.59,3.12.69.6,1.38,1.22,2.06,1.82.12.1.23.2.35.31,1.17,1.04,2.34,2.08,3.51,3.14.63.56,1.26,1.14,1.88,1.71.2.18.41.37.61.55,1.17,1.06,2.33,2.13,3.51,3.21.55.51,1.11,1.03,1.66,1.54.28.26.56.52.84.78,1.19,1.11,2.38,2.22,3.57,3.35.44.41.88.83,1.32,1.25.38.36.76.72,1.14,1.08,1.23,1.17,2.46,2.35,3.69,3.53.32.31.64.61.96.92.46.45.93.89,1.39,1.34,1.3,1.26,2.59,2.52,3.89,3.79.19.19.38.37.58.56.53.52,1.05,1.03,1.58,1.55,1.4,1.39,2.81,2.78,4.21,4.18.61.61,1.23,1.23,1.85,1.85,1.48,1.49,2.95,2.98,4.43,4.47.53.54,1.06,1.08,1.59,1.62,1.6,1.63,3.19,3.27,4.78,4.91.06.06.12.12.18.18.56.58,1.13,1.17,1.69,1.75,1.57,1.63,3.14,3.27,4.7,4.9.06.06.12.12.18.19.49.51.97,1.02,1.46,1.53,1.26,1.33,2.53,2.67,3.78,4,.53.56,1.06,1.12,1.58,1.68.31.32.61.65.92.98,1.26,1.35,2.52,2.7,3.77,4.04.51.55,1.03,1.11,1.53,1.66.34.36.67.73,1.01,1.09.85.92,1.7,1.84,2.54,2.76.37.41.75.82,1.12,1.23.72.78,1.42,1.56,2.13,2.34.22.24.45.49.67.74.64.71,1.28,1.41,1.92,2.11.38.42.76.84,1.14,1.26.51.57,1.02,1.13,1.53,1.69.48.54.96,1.07,1.45,1.61.55.61,1.1,1.22,1.64,1.83.69.78,1.38,1.55,2.06,2.32.75.84,1.5,1.68,2.23,2.51.38.43.76.86,1.14,1.29.55.62,1.1,1.25,1.65,1.87.53.6,1.06,1.21,1.58,1.81.43.49.86.98,1.29,1.47.67.76,1.33,1.52,1.99,2.28.77.89,1.54,1.77,2.29,2.64.21.24.41.47.61.71.61.71,1.21,1.41,1.81,2.11.62.72,1.23,1.43,1.84,2.14.27.32.55.64.82.96.63.74,1.25,1.47,1.87,2.2.79.93,1.58,1.86,2.35,2.77.05.06.09.11.14.17.63.75,1.26,1.49,1.87,2.23.71.84,1.41,1.68,2.1,2.51.12.15.24.29.36.43.58.69,1.15,1.38,1.71,2.06.78.94,1.55,1.87,2.3,2.79.57.69,1.12,1.36,1.67,2.04.77.93,1.53,1.87,2.27,2.78,0,0,0,0,0,0,.5.61.99,1.22,1.48,1.83.76.94,1.5,1.86,2.23,2.77.45.56.89,1.12,1.33,1.67.72.91,1.44,1.81,2.13,2.69.41.52.8,1.02,1.2,1.53.69.88,1.37,1.75,2.02,2.6.36.47.71.92,1.06,1.38.65.85,1.29,1.68,1.9,2.49.32.42.62.83.93,1.24.6.8,1.19,1.58,1.75,2.35.28.37.54.74.81,1.1.67.91,1.33,1.82,1.93,2.66,1.96,2.76,3.86,5.51,5.72,8.26.12.18.24.35.35.52.59.88,1.16,1.75,1.74,2.62,1.24,1.87,2.48,3.74,3.68,5.61.74,1.16,1.47,2.32,2.19,3.48,1.03,1.64,2.05,3.28,3.04,4.92.77,1.27,1.53,2.54,2.28,3.8.88,1.49,1.75,2.98,2.6,4.47.78,1.37,1.57,2.74,2.33,4.1.73,1.32,1.44,2.64,2.15,3.95.81,1.51,1.64,3.02,2.42,4.52.43.83.85,1.66,1.27,2.49,3.41,6.66,6.55,13.28,9.4,19.85.13.3.27.61.4.91.97,2.26,1.91,4.52,2.82,6.77.12.3.24.6.36.89.94,2.35,1.85,4.69,2.72,7.02.03.08.06.17.09.25,4.61,12.38,8.26,24.6,11.05,36.63,0,0,.01,0,.02,0,.15.63.31,1.27.46,1.9.11.47.2.94.31,1.41.45,2.05.88,4.1,1.28,6.15.12.59.24,1.18.35,1.77.42,2.23.81,4.45,1.18,6.66.12.71.23,1.42.35,2.13.34,2.18.66,4.35.95,6.52.09.67.17,1.34.25,2.01.24,1.94.47,3.88.67,5.81.07.67.14,1.34.2,2,.19,1.97.36,3.93.5,5.88.06.73.11,1.46.16,2.19.14,2.05.25,4.1.34,6.15.04.78.06,1.57.09,2.35.07,2.04.13,4.06.16,6.09.01.7,0,1.4.01,2.1.01,1.63,0,3.25,0,4.87,0,.73,0,1.47-.03,2.19-.04,1.94-.1,3.87-.18,5.79-.03.86-.07,1.72-.11,2.58-.09,1.87-.2,3.73-.33,5.59-.06.88-.13,1.75-.2,2.62-.12,1.45-.24,2.91-.38,4.35-.11,1.17-.23,2.35-.36,3.51-.14,1.35-.3,2.69-.46,4.03-.11.92-.22,1.85-.34,2.76-.23,1.71-.47,3.41-.72,5.11-.15.99-.31,1.98-.47,2.97-.22,1.39-.46,2.78-.7,4.16-.22,1.26-.45,2.52-.69,3.77-.2,1.04-.4,2.07-.61,3.11-.31,1.53-.62,3.06-.96,4.58-.22,1.01-.44,2.02-.67,3.02-.25,1.09-.5,2.18-.76,3.27-.35,1.47-.71,2.93-1.09,4.39-.29,1.14-.59,2.27-.89,3.4-.2.75-.41,1.51-.61,2.26-.51,1.85-1.03,3.68-1.57,5.51-.19.64-.38,1.28-.57,1.91-.64,2.11-1.3,4.2-1.97,6.28-.12.38-.24.77-.37,1.15-.41,1.25-.83,2.5-1.26,3.75-.07.2-.13.39-.2.59-.8,2.34-1.63,4.66-2.48,6.96-.12.33-.25.66-.37.99-.86,2.3-1.74,4.58-2.64,6.84-.06.16-.12.32-.19.48-.49,1.23-.99,2.46-1.5,3.68h0c-24.2,58.59-62.22,105.39-91.21,135.38,31.21-2.97,62.42-11.4,92.31-25.8,66.73-32.13,114.52-88.05,137.93-152.77,57.84-37.17,101.73-96.13,118.23-168.45,16.52-72.35,2.54-144.53-33.47-203.12M1159.98,420.78c-.41.2-.82.41-1.24.6-1.62.75-3.28,1.43-4.95,2.1-.54.21-1.07.46-1.61.67-1.63.62-3.29,1.18-4.96,1.73-.59.19-1.17.42-1.77.61-2.26.7-4.55,1.34-6.87,1.9-.97-1.93-1.86-3.89-2.7-5.86-.31-.72-.59-1.45-.88-2.17-.5-1.22-.98-2.45-1.43-3.68-.34-.93-.66-1.86-.97-2.8-.33-.98-.64-1.98-.94-2.96-.33-1.11-.67-2.22-.97-3.33-.17-.61-.3-1.22-.46-1.83-1.24-4.91-2.16-9.87-2.75-14.85,0-.03,0-.06,0-.08-.21-1.79-.37-3.57-.5-5.36-4.11-57.99,34.45-117.37,92.46-131.27,25.16,50.61,8.53,112.18-31.29,147.83-1.64,1.47-3.32,2.89-5.03,4.26-.09.08-.19.16-.28.24-1.73,1.38-3.5,2.71-5.3,3.99-.11.08-.22.17-.34.24-1.76,1.24-3.55,2.42-5.38,3.57-.18.11-.36.24-.54.35-1.74,1.08-3.51,2.09-5.31,3.08-.29.16-.57.33-.85.48-1.69.9-3.41,1.75-5.14,2.57M1142.47,619.91c-.72,1-1.43,2.02-2.18,2.99-.48.62-.98,1.2-1.47,1.81-1.02,1.27-2.05,2.53-3.11,3.75-.6.69-1.23,1.36-1.85,2.03-.99,1.08-1.99,2.16-3.02,3.2-.68.69-1.37,1.36-2.07,2.03-1.01.98-2.03,1.94-3.07,2.88-.73.66-1.47,1.31-2.22,1.95-1.05.9-2.11,1.78-3.19,2.65-.77.61-1.54,1.22-2.32,1.82-1.1.84-2.22,1.65-3.34,2.46-.79.56-1.57,1.13-2.37,1.67-1.17.79-2.36,1.55-3.56,2.31-.78.49-1.56,1-2.35,1.48-1.3.78-2.63,1.52-3.96,2.26-.71.39-1.41.81-2.13,1.2-2.01,1.07-4.05,2.09-6.12,3.05-.67.31-1.36.59-2.04.89-1.43.64-2.86,1.28-4.32,1.87-1,.4-2.02.77-3.02,1.15-1.15.43-2.29.87-3.45,1.27-1.11.39-2.24.74-3.36,1.09-1.07.34-2.13.68-3.2,1-1.19.35-2.39.67-3.59.99-1.01.27-2.02.53-3.04.77-1.26.3-2.53.59-3.8.86-.95.2-1.9.39-2.85.57-1.34.25-2.68.5-4.03.71-.86.14-1.73.26-2.59.38-1.44.2-2.89.4-4.33.56-.7.08-1.4.13-2.1.2-1.62.16-3.23.31-4.85.41-.27.02-.54.02-.81.04-5.53.31-11.07.28-16.58-.05-1.09-.06-2.17-.12-3.26-.21-1.16-.1-2.31-.22-3.46-.35-.94-.1-1.88-.19-2.82-.31-1.34-.17-2.69-.38-4.02-.59-.74-.12-1.48-.22-2.22-.35-1.64-.28-3.28-.61-4.91-.96-.3-.06-.6-.12-.91-.18-.19-.04-.38-.08-.56-.12-1.9-.42-3.79-.89-5.66-1.39-.23-.06-.46-.12-.69-.19-1.94-.53-3.88-1.1-5.8-1.72-.08-.03-.17-.06-.25-.08-12.35-4.02-24.09-9.83-34.7-17.48,0,0,0,.01.01.02-.08-.06-.16-.11-.24-.17-.85-.61-1.69-1.24-2.52-1.87-1.03-.79-2.04-1.6-3.05-2.42-.76-.62-1.51-1.23-2.26-1.87-1.11-.96-2.2-1.96-3.28-2.96-.6-.56-1.21-1.1-1.81-1.67-1.65-1.61-3.28-3.26-4.84-4.97,1.29-1.88,2.64-3.71,4.02-5.5.3-.39.59-.77.9-1.15.48-.61.99-1.19,1.49-1.79,18.28-22.26,43.48-36.72,70.59-43.15.07-.02.15-.03.23-.05,2.04-.48,4.09-.9,6.14-1.29.31-.06.62-.12.93-.18,2.01-.36,4.03-.69,6.05-.97.41-.05.81-.1,1.22-.16,1.78-.23,3.56-.42,5.35-.59.3-.03.6-.06.89-.09.09,0,.18-.02.27-.02,1.84-.15,3.68-.25,5.51-.34.2,0,.39-.02.59-.03.6-.03,1.21-.04,1.81-.06,1.39-.04,2.78-.05,4.17-.05.28,0,.56,0,.83,0,.48,0,.96,0,1.44,0,1.62.03,3.23.1,4.84.18.22,0,.44.02.66.04.79.05,1.59.1,2.38.15,1.05.08,2.09.17,3.13.27.53.05,1.05.1,1.58.15.49.05.97.1,1.46.16.52.06,1.03.14,1.54.2,1.03.13,2.06.27,3.08.42.92.14,1.85.29,2.77.45,1.38.24,2.75.49,4.12.77.98.2,1.95.41,2.92.63,1.31.3,2.62.61,3.92.94,1.02.26,2.03.54,3.05.83,1.25.35,2.49.71,3.73,1.1,1.05.33,2.09.68,3.13,1.04,1.18.41,2.37.82,3.54,1.26,1.07.4,2.13.83,3.19,1.26,1.13.46,2.25.91,3.37,1.4,1.09.47,2.15.98,3.22,1.49,1.07.5,2.14,1,3.19,1.53,1.09.55,2.17,1.14,3.24,1.73,1.01.55,2.02,1.08,3.01,1.66,1.1.64,2.17,1.32,3.26,1.99.89.55,1.79,1.09,2.66,1.67.1.07.21.13.31.2,1.05.69,2.08,1.44,3.11,2.17.87.62,1.75,1.21,2.61,1.85,1.13.84,2.22,1.74,3.32,2.63.67.54,1.35,1.06,2.02,1.62.15.13.3.25.46.38,1.16.98,2.28,2.02,3.41,3.05.5.46,1.03.91,1.53,1.38.25.24.49.48.74.72,1.61,1.56,3.2,3.15,4.73,4.81-.68.99-1.4,1.92-2.11,2.89h0M1071.12,468.65c-1.09,1.94-2.22,3.85-3.4,5.72-.2.31-.4.62-.6.93-1.3,2.02-2.65,4-4.05,5.93-.01.02-.03.04-.04.06-.04.05-.08.1-.12.16-1.41,1.92-2.87,3.79-4.37,5.62-.08.1-.16.19-.24.29-.13.16-.26.31-.4.47-1.39,1.66-2.82,3.29-4.29,4.87-.2.22-.4.44-.6.65-1.61,1.71-3.26,3.38-4.95,5-.18.17-.36.34-.54.51-1.56,1.47-3.16,2.9-4.78,4.29-.35.3-.7.6-1.06.89-1.7,1.42-3.43,2.81-5.19,4.14-.07.05-.14.11-.21.16-.1.08-.2.15-.3.22-1.75,1.31-3.54,2.57-5.36,3.79-.45.3-.9.59-1.35.89-1.52,1-3.06,1.96-4.61,2.89-.47.28-.93.57-1.4.85-1.81,1.06-3.65,2.07-5.5,3.05-.23.12-.45.24-.68.36-.36.18-.72.36-1.08.54-1.49.76-2.98,1.48-4.49,2.18-.73.34-1.45.67-2.18.99-1.51.67-3.03,1.31-4.56,1.93-.33.13-.66.27-.99.41-.37.15-.75.29-1.12.44-.1.04-.21.07-.31.11-1.62.62-3.26,1.21-4.9,1.78-.94.32-1.88.63-2.83.93-1.14.36-2.29.71-3.44,1.05-.92.27-1.84.54-2.77.8-.14.04-.27.07-.41.11-1.64.44-3.29.85-4.94,1.23-.19.04-.38.09-.57.13-1.08.25-2.17.46-3.25.68-.91.19-1.83.37-2.74.54-1.25.23-2.5.45-3.75.65-.76.12-1.52.22-2.28.33-1.15.17-2.31.33-3.47.47-.06,0-.11.01-.16.02-1.3.15-2.6.27-3.91.39-.54.05-1.09.11-1.63.15-1.44.11-2.89.2-4.34.27-.57.03-1.15.05-1.73.07-4.76.18-9.53.13-14.28-.16-.41-.03-.82-.05-1.23-.08-1.6-.11-3.19-.24-4.78-.4-.1,0-.2-.02-.3-.03-3.38-.36-6.76-.84-10.11-1.44-.78-.14-1.57-.24-2.35-.4-.79-.16-1.58-.36-2.37-.53-1.65-.36-3.31-.7-4.94-1.12-.9-.23-1.79-.51-2.68-.76-1.51-.42-3.03-.82-4.53-1.29-1-.31-1.97-.69-2.96-1.02-1.38-.47-2.77-.91-4.13-1.43-1.06-.4-2.1-.87-3.15-1.3-1.27-.52-2.55-1.01-3.8-1.57-1.15-.52-2.28-1.1-3.42-1.65-1.12-.54-2.26-1.05-3.37-1.62-1.21-.63-2.38-1.33-3.58-1.99-1.01-.57-2.04-1.1-3.03-1.69-1.24-.74-2.45-1.56-3.67-2.35-.91-.59-1.84-1.14-2.74-1.75-.61-.42-1.19-.88-1.79-1.31-1.75-1.25-3.48-2.53-5.18-3.87-1.75-1.39-3.47-2.8-5.16-4.29,1.25-2.29,2.56-4.53,3.94-6.72.67-1.08,1.41-2.1,2.12-3.15.73-1.09,1.43-2.19,2.19-3.25.84-1.17,1.75-2.28,2.63-3.42.68-.88,1.33-1.79,2.04-2.65.99-1.22,2.05-2.37,3.08-3.55.64-.73,1.26-1.49,1.91-2.2,1.14-1.23,2.33-2.39,3.5-3.57.6-.6,1.19-1.24,1.81-1.84,1.3-1.25,2.66-2.44,4.01-3.63.53-.47,1.05-.97,1.59-1.44,1.47-1.26,2.98-2.45,4.5-3.63.46-.36.9-.75,1.37-1.1,1.62-1.23,3.28-2.39,4.94-3.55.4-.27.78-.57,1.18-.84,1.67-1.13,3.38-2.19,5.1-3.25t0,0c1.29-.79,2.6-1.55,3.92-2.3.5-.29,1-.57,1.5-.84,1.31-.73,2.63-1.44,3.96-2.12.34-.18.69-.34,1.03-.51,2.59-1.3,5.22-2.52,7.89-3.66.5-.21,1-.44,1.51-.65,1.3-.54,2.61-1.05,3.92-1.55.69-.26,1.38-.52,2.07-.77.58-.21,1.16-.41,1.74-.62,1.06-.37,2.12-.73,3.19-1.08.3-.1.6-.18.9-.28,2.39-.76,4.8-1.45,7.23-2.09.47-.12.94-.25,1.42-.36,1-.25,2.01-.49,3.02-.72.35-.08.69-.16,1.04-.24,1.1-.24,2.21-.47,3.32-.69.07-.02.13-.03.2-.04.43-.08.86-.17,1.29-.25,1.12-.21,2.24-.41,3.36-.59.74-.12,1.47-.23,2.21-.34.92-.14,1.84-.28,2.76-.4.17-.02.35-.04.53-.06.82-.1,1.63-.19,2.46-.28.92-.1,1.85-.19,2.77-.28,1.1-.1,2.2-.2,3.31-.27,1.69-.11,3.39-.19,5.09-.25.97-.03,1.93-.05,2.9-.06,1.45-.02,2.9-.02,4.35.01.28,0,.56,0,.84,0,.58.01,1.16.03,1.74.05.15,0,.3.01.44.02,1.57.06,3.13.14,4.7.25.72.05,1.44.1,2.15.16,1.99.17,3.97.38,5.95.64.58.07,1.16.16,1.74.24,1.88.27,3.75.57,5.61.91.51.09,1.02.19,1.52.29,1.99.39,3.98.82,5.95,1.3.37.09.74.18,1.11.27,2.19.55,4.37,1.15,6.53,1.81.06.02.11.04.16.05.21.07.42.14.63.2,2.04.64,4.07,1.33,6.09,2.07.29.11.57.21.86.31,2.16.81,4.29,1.67,6.41,2.6.14.06.29.12.43.19,2.14.95,4.26,1.96,6.35,3.02.23.12.45.24.68.35,2.06,1.07,4.1,2.18,6.11,3.37.08.04.16.09.23.13,2.13,1.26,4.23,2.6,6.29,3.99.06.04.11.07.17.11,1.98,1.35,3.92,2.76,5.83,4.23.21.16.42.32.62.48,1.93,1.51,3.84,3.07,5.69,4.71h0c.15.13.32.25.47.39-.2.37-.43.71-.63,1.08M976.91,379.13c-.2.17-.39.35-.59.52-.45.39-.91.76-1.37,1.14-1.16.98-2.33,1.96-3.52,2.88-.7.55-1.41,1.06-2.12,1.58-1.09.81-2.18,1.6-3.29,2.36,0,0,0,0,0,0h0c-.93.64-1.88,1.26-2.83,1.87-.63.41-1.26.8-1.9,1.2-.65.4-1.29.8-1.95,1.18-.38.23-.76.45-1.15.68-.55.32-1.11.61-1.66.92-.59.33-1.18.66-1.77.97-.35.19-.71.37-1.07.55-.75.39-1.5.78-2.27,1.15-.72.36-1.44.69-2.16,1.03-.28.13-.55.25-.83.38-.61.28-1.22.57-1.84.84-.72.32-1.45.61-2.18.92-.42.17-.84.34-1.25.51-.55.22-1.09.44-1.64.65-.81.31-1.62.63-2.43.92-.19.07-.38.13-.57.19-1.32.47-2.64.92-3.97,1.35-.65.21-1.3.39-1.96.59-1.13.34-2.26.66-3.4.97-.63.17-1.25.34-1.88.49-1.3.33-2.6.62-3.91.91-.53.12-1.05.24-1.58.35-1.53.31-3.06.59-4.6.84-.48.08-.96.16-1.44.24-.1.02-.2.03-.3.05-1.52.23-3.05.44-4.58.62-.51.06-1.03.12-1.54.18-1.61.17-3.23.31-4.85.42-.43.03-.86.05-1.29.08-1.71.1-3.42.18-5.13.21-.25,0-.5,0-.75,0-1.86.03-3.71.03-5.56-.02h0c-1.52-.04-3.04-.1-4.56-.19-.85-.05-1.69-.12-2.53-.18-1.26-.1-2.52-.22-3.77-.36-.99-.11-1.98-.22-2.97-.35-1.39-.18-2.79-.38-4.18-.61-.8-.13-1.59-.26-2.39-.41-1.7-.3-3.39-.64-5.08-1.01-.67-.15-1.34-.32-2.01-.48-1.28-.3-2.56-.62-3.83-.97-.71-.19-1.42-.38-2.13-.58-1.68-.48-3.35-1-5-1.54-.7-.23-1.39-.48-2.09-.72-1.31-.46-2.61-.93-3.91-1.43-.66-.25-1.33-.5-1.98-.77-1.54-.62-3.06-1.27-4.58-1.95-.68-.3-1.35-.61-2.02-.93-1.6-.75-3.18-1.52-4.74-2.33,0,0-.02,0-.03-.01-18.39-9.58-34.4-23.65-45.71-41.91,26.22-26.09,62.9-36.82,98.33-33.64,2.35.21,4.7.48,7.04.81.02,0,.04,0,.06,0,2.32.33,4.62.72,6.92,1.18.05,0,.09.02.14.03,2.25.44,4.49.95,6.72,1.51.09.02.19.05.29.07,2.17.55,4.32,1.16,6.45,1.81.15.05.3.09.46.14,2.07.64,4.11,1.34,6.15,2.08.22.08.43.16.65.24,1.95.73,3.87,1.51,5.79,2.32.29.12.57.24.86.36,1.83.8,3.63,1.65,5.42,2.53.35.17.71.34,1.06.51,1.7.86,3.37,1.77,5.03,2.7.42.23.84.46,1.25.7,1.57.91,3.11,1.87,4.65,2.84.47.3.95.59,1.42.9,1.45.95,2.86,1.96,4.27,2.97.52.37,1.04.73,1.55,1.11,1.33.99,2.62,2.04,3.91,3.08.55.45,1.11.88,1.65,1.34,1.22,1.03,2.4,2.11,3.58,3.19.57.52,1.15,1.02,1.71,1.56,1.12,1.08,2.2,2.2,3.29,3.33.56.59,1.15,1.15,1.7,1.75,1.06,1.15,2.07,2.35,3.08,3.54.37.44.76.86,1.12,1.3,1.51,1.83,2.96,3.72,4.36,5.65.09.12.19.24.29.37,1.46,2.03,2.87,4.13,4.2,6.28-1.54,1.52-3.13,2.97-4.73,4.4M857.45,127.44c36.27.73,69.12,18.15,92.43,44.17,0,.01-.02.02-.03.03,21.24,23.72,34.56,54.57,35.31,86.47,0,.17,0,.34,0,.52.02,1.09.03,2.19.02,3.28,0,.32,0,.65-.02.97-.02.95-.04,1.9-.08,2.85-.02.4-.04.81-.06,1.21-.04.87-.1,1.74-.16,2.61-.03.45-.07.91-.11,1.36-.07.83-.15,1.66-.24,2.49-.05.48-.1.96-.16,1.44-.1.81-.2,1.62-.32,2.43-.07.49-.13.97-.21,1.46-.12.82-.26,1.64-.41,2.45-.08.47-.16.94-.25,1.42-.16.88-.35,1.77-.53,2.65-.08.4-.16.8-.25,1.2-.28,1.28-.59,2.56-.92,3.84-1.72-.05-3.44-.15-5.14-.26-.42-.03-.84-.06-1.26-.09-1.69-.14-3.38-.3-5.05-.5-.07,0-.14-.02-.21-.03-1.63-.2-3.24-.44-4.84-.71-.39-.07-.78-.13-1.17-.2-1.66-.29-3.32-.6-4.96-.96-.06-.02-.13-.03-.2-.05-1.6-.35-3.19-.74-4.76-1.15-.33-.09-.65-.17-.98-.26-1.65-.45-3.29-.92-4.91-1.43-.02,0-.04-.01-.06-.02-1.63-.51-3.24-1.06-4.83-1.64-.23-.08-.46-.16-.68-.25-2.26-.83-4.49-1.75-6.69-2.7-.03-.01-.06-.03-.08-.05-1.99-.87-6.45-3.33-13.06-6.55-7.9-4.56-15.31-9.92-22.11-15.95,0,0,0,0,0,0-35.96-31.88-55.17-82.32-43.05-130.07M1046.41,329.19c-.33-.54-.65-1.09-.97-1.63-.02-.04-.05-.09-.08-.13-.68-1.17-1.33-2.34-1.96-3.52-.25-.46-.5-.92-.74-1.39-.12-.23-.24-.45-.35-.67-.76-1.5-1.49-3.02-2.18-4.54-.46-1.02-.89-2.05-1.31-3.08-.27-.64-.53-1.28-.79-1.93-.47-1.19-.92-2.38-1.35-3.58-.06-.16-.11-.32-.16-.48-.99-2.84-1.87-5.72-2.63-8.61-.07-.28-.16-.55-.23-.83-.12-.48-.26-.96-.38-1.44-.44-1.85-.83-3.7-1.18-5.56-.13-.69-.24-1.39-.35-2.09-.21-1.24-.41-2.49-.58-3.74-.11-.79-.21-1.59-.3-2.38-.14-1.24-.26-2.48-.36-3.73-.06-.72-.13-1.45-.18-2.17-.12-1.8-.19-3.6-.22-5.4-.02-.85,0-1.7,0-2.55,0-1.08.01-2.15.04-3.23.03-.95.06-1.9.11-2.84.05-.99.12-1.97.19-2.96.07-.96.13-1.93.23-2.89.14-1.42.31-2.83.5-4.24.18-1.33.38-2.66.6-3.99.13-.8.26-1.61.41-2.41.21-1.11.43-2.22.66-3.32.15-.72.32-1.43.48-2.15.27-1.16.53-2.31.84-3.46.06-.24.13-.47.19-.7.7-2.61,1.48-5.19,2.34-7.75.16-.48.31-.95.48-1.42.43-1.23.88-2.45,1.35-3.67.18-.48.37-.96.56-1.43,1.67-4.21,3.57-8.33,5.68-12.33.07-.14.15-.29.22-.43.67-1.27,1.38-2.53,2.1-3.77.18-.31.36-.63.55-.94,3.16-5.36,6.71-10.48,10.64-15.28.21-.25.42-.5.62-.75.94-1.13,1.9-2.25,2.87-3.34,11.17-12.46,24.98-22.55,41.02-28.93,20.55,29.6,24.18,66.9,14.3,100.21-.59,1.98-1.23,3.93-1.91,5.88-.04.12-.08.24-.12.36-.68,1.94-1.42,3.85-2.19,5.75-.05.13-.09.26-.15.38-.77,1.86-1.59,3.7-2.44,5.53-.07.16-.13.32-.21.48-.84,1.77-1.73,3.51-2.65,5.25-.11.2-.2.41-.31.61-.9,1.67-1.86,3.32-2.83,4.94-.06.1-.12.2-.17.3-.28.46-.57.92-.86,1.38-.76,1.23-1.55,2.45-2.36,3.66-.35.52-.7,1.04-1.06,1.56-.85,1.22-1.73,2.42-2.62,3.61-.11.14-.2.29-.31.43-.18.24-.36.5-.55.74-.98,1.28-2.02,2.52-3.05,3.76-.22.26-.42.53-.64.78-.36.42-.73.83-1.09,1.25-.8.91-1.62,1.81-2.45,2.7-.17.18-.32.36-.49.54-.41.44-.83.88-1.25,1.31-.89.91-1.81,1.79-2.72,2.67-.38.36-.74.74-1.12,1.09-.13.12-.25.25-.39.37-1.06.98-2.17,1.92-3.28,2.87-.39.34-.77.69-1.17,1.02-.43.36-.86.7-1.3,1.05-.86.69-1.75,1.36-2.63,2.03-.3.23-.58.46-.88.68-.47.35-.94.7-1.42,1.05-1,.72-2.03,1.4-3.06,2.08-.57.38-1.12.78-1.69,1.15-.06.04-.12.09-.19.13-1.27.8-2.58,1.55-3.88,2.31-.43.25-.84.51-1.28.76-.5.28-1.01.55-1.51.82-1.14.62-2.31,1.21-3.48,1.79-.18.09-.36.19-.54.28-.54.26-1.07.53-1.61.78-1.84.86-3.7,1.69-5.61,2.45-1.15-1.67-2.22-3.36-3.26-5.07M1323.14,518.76c-13.98,23.89-34.47,43.88-59.54,56-.07.04-.15.07-.23.11-1.94.94-3.91,1.81-5.91,2.65-.24.1-.48.2-.72.3-1.92.79-3.87,1.54-5.85,2.24-.3.1-.59.21-.89.31-1.98.69-3.97,1.33-6,1.92-.24.07-.49.14-.73.21-2.12.6-4.25,1.17-6.42,1.66-.66-1.36-1.29-2.73-1.9-4.11-.2-.44-.38-.88-.57-1.32-.41-.96-.81-1.92-1.2-2.88-.2-.49-.39-.99-.58-1.48-.37-.96-.72-1.92-1.07-2.89-.16-.45-.33-.91-.49-1.36-.43-1.26-.85-2.52-1.24-3.78-.05-.15-.1-.3-.14-.44-.44-1.43-.84-2.87-1.23-4.31-.1-.37-.18-.73-.28-1.1-.28-1.09-.55-2.17-.8-3.26-.1-.44-.2-.89-.3-1.34-.24-1.07-.45-2.14-.66-3.21-.07-.39-.15-.78-.22-1.18-.25-1.37-.48-2.73-.69-4.11,0-.08-.02-.16-.04-.23-.23-1.54-.43-3.07-.6-4.61-.01-.14-.03-.28-.04-.42-.15-1.36-.27-2.72-.38-4.07-.02-.29-.04-.57-.06-.85-.09-1.28-.17-2.56-.22-3.84,0-.23-.02-.46-.03-.69-.18-4.66-.12-9.33.18-13.98,0-.03,0-.07,0-.1.1-1.56.23-3.12.38-4.68,0,0,0,0,0,0,2.62-26.87,12.91-53,29.08-74.65,0,0,0,0,0,0,18.71-25.04,45.28-44.09,76.99-51.33,20.62,42.56,15.22,91.92-7.58,130.89,0-.01-.02-.02-.02-.04"/>
        <g class="cls-3">
          <g class="cls-16">
            <path class="cls-2" d="M1100.96,434.65c-4.74-5.6-87.1-101.44-93.16-108.79,31.05,24.73,67.06,61.26,97.4,94.89,12.56-45.46,12.93-93.2,1.73-138.39-12.45,22.89-32.01,41.84-57.26,51.91-31.72-46.13-22.9-108.78,12.19-147.88-13.84-18.73-30.28-36.01-49.35-51.23-117.58-93.77-288.91-74.46-382.68,43.12-93.77,117.58-74.47,288.9,43.11,382.67,148.05,118.06,368.13,52.35,428.03-126.31M857.46,127.44c80.41,1.63,144.02,85.22,124.05,162.86-81.98-2.25-143.55-86.03-124.05-162.86M788.29,352.17c54.23-53.97,153.19-42.38,193.36,22.57-54.98,54.36-153.42,41.87-193.36-22.57M861.68,504.51c39.95-73.58,147.62-92.59,210.08-36.93-40.7,74.37-148.02,92.01-210.08,36.93"/>
          </g>
        </g>
        <g class="cls-3">
          <g class="cls-5">
            <path class="cls-15" d="M1169.13,746.42c46.51-129.58-11.48-275.97-138.26-337.02-21.11-10.17-42.89-17.37-64.86-21.77-38.85,26.74-91.26,27.68-132,6.45-70.49,21.31-132.17,70.94-166.63,142.51-65.25,135.5-8.31,298.24,127.19,363.47,139.79,67.33,315.84,5.54,374.56-153.65M1144.57,617.02c-46.09,67.7-151.82,74.15-205.64,15.28,46.16-67.49,151.15-74.34,205.64-15.28M1071.76,467.58c-40.7,74.37-148.02,92.01-210.08,36.93,39.95-73.58,147.62-92.59,210.08-36.93"/>
          </g>
        </g>
        <g class="cls-3">
          <g class="cls-8">
            <path class="cls-15" d="M1028.36,672.3c-33.48-1.46-66.26-14.68-89.42-40,29.2-42.71,81.96-61.09,130.58-53.91,8.02-35.29,9.02-72.69,1.95-110.31-40.91,73.94-147.87,91.38-209.79,36.43,39.86-73.39,147.07-92.48,209.61-37.33-.61-3.17-1.2-6.35-1.93-9.53-17.94-78.63-68.27-141.43-133.68-177.65-10.32-4.48-85.98-51.53-192.4-27.23-146.62,33.46-238.35,179.44-204.88,326.07,33.47,146.62,179.46,238.35,326.07,204.89,69.45-15.85,126.55-56.98,163.89-111.43M788.29,352.17c54.23-53.97,153.19-42.38,193.35,22.57-54.98,54.35-153.42,41.87-193.35-22.57"/>
          </g>
        </g>
        <g class="cls-3">
          <g class="cls-6">
            <path class="cls-14" d="M861.68,504.51c39.95-73.58,147.62-92.59,210.08-36.93-28.1,51.35-87.95,75.63-142.73,67.64,22.64,6.09,46.42,9.41,70.98,9.41,54.43,0,105.08-16.03,147.62-43.54-31.99-57.19-68.03-88.05-139.82-175.22,57.02,45.41,130.75,130.59,155.3,164.53,66.29-49.67,109.21-128.86,109.21-218.08C1272.31,121.92,1150.39,0,1000.01,0c-150.4,0-272.31,121.92-272.31,272.31,0,104.14,58.48,194.59,144.37,240.39-3.57-2.54-7.05-5.24-10.38-8.2M1219.43,254.17c33.98,68.35-8.21,156.71-80.84,174.2-34.05-68.02,8.18-156.79,80.84-174.2M1102.84,157.5c41.25,59.41,14.35,149.84-53.17,176.76-41.82-60.8-13.23-150.35,53.17-176.76M857.46,127.44c80.41,1.63,144.02,85.23,124.05,162.86-81.99-2.25-143.55-86.03-124.05-162.86M788.29,352.17c54.23-53.97,153.19-42.38,193.35,22.57-54.98,54.35-153.42,41.87-193.35-22.57"/>
          </g>
        </g>
        <g class="cls-3">
          <g class="cls-7">
            <path class="cls-12" d="M1370.18,178.28c-93.76-117.58-265.1-136.89-382.67-43.12-13.96,11.13-26.49,23.39-37.65,36.48,28.35,31.66,42.61,76.05,31.65,118.65-31.02-.85-59.11-13.38-81-32.79-6.96,19.79-11.63,40.27-13.89,61.02,37.85,3.39,74.3,22.66,95.04,56.21-24.37,24.1-57.28,35.02-89.85,34.15,3.71,16.25,8.99,32.25,15.78,47.82,49.78-30.55,118.87-29.5,164.18,10.88-22.75,41.58-66.32,65.4-111.17,68.72,16.7,17.48,35.24,32.36,55.12,44.45,45.41-10.82,96.21.87,128.86,36.27-.68.99-1.4,1.93-2.11,2.89,14.53.8,29.12.41,43.65-1.12-12.77-123.89-96.23-193.28-178.31-292.94,57.82,46.04,132.85,133.01,156.32,165.97,29.82,41.86,47.63,82.42,56.61,121.05,193.13-46.11,273.92-278.52,149.45-434.6M1049.67,334.26c-41.81-60.8-13.23-150.35,53.17-176.76,41.25,59.41,14.35,149.84-53.17,176.76M1138.59,428.37c-34.04-68.02,8.18-156.79,80.84-174.2,33.98,68.35-8.21,156.71-80.84,174.2M1236.86,584.16c-37.37-76.71,10.54-177.21,93.87-196.25,37.5,77.41-11.03,177.31-93.87,196.25"/>
          </g>
        </g>
        <g class="cls-3">
          <g class="cls-11">
            <path class="cls-15" d="M1256.72,252.77c-47.9-10.93-95.71-8.43-139.58,4.92-9.94,33.55-33.58,63.06-67.48,76.58-7.43-10.81-12.6-22.53-15.77-34.64-23.43,17.37-44.13,38.51-61.1,62.81,3.18,3.86,6.16,7.95,8.84,12.3-8.58,8.49-18.23,15.34-28.53,20.62-7.75,15.33-14.16,31.57-18.98,48.65,45.8-16.37,99.93-10.02,137.62,23.57-28.91,52.82-91.41,76.99-147.44,66.84,1.84,31.22,9.06,61.44,20.93,89.56,48.82-59.59,147.19-63.47,199.33-6.96-41.39,60.8-130.86,72.16-187.65,31.21,38.78,71.31,108.33,124.06,194.08,138.53,59.02-108.9,51.5-233.87-55.4-358.39-33.65-39.19-83.45-97.23-87.8-102.51,57.82,46.04,132.85,133.01,156.32,165.97,80.76,113.36,73.8,217.36,40.21,298.66,121.02-3.56,229.09-88.12,257.27-211.64,33.47-146.61-58.26-292.61-204.88-326.07M1138.59,428.37c-34.04-68.02,8.18-156.79,80.84-174.2,33.98,68.35-8.21,156.71-80.84,174.2M1236.86,584.16c-37.37-76.71,10.54-177.21,93.87-196.25,37.5,77.41-11.03,177.31-93.87,196.25"/>
          </g>
        </g>
        <g class="cls-3">
          <g class="cls-10">
            <path class="cls-15" d="M1158.06,772.88c82.09-175.05-29.75-306.41-62.46-344.51-11.6-13.51-25.12-29.27-38.04-44.33-186.69,20.5-297.04,219.76-215.62,388.84,33.09,68.71,91.26,117.17,158.23,139.79,67.12-22.51,125.54-70.8,157.89-139.8M861.68,504.51c39.95-73.58,147.62-92.59,210.08-36.93-40.7,74.37-148.02,92.01-210.08,36.93M1144.57,617.02c-46.09,67.7-151.82,74.14-205.64,15.28,46.16-67.48,151.15-74.34,205.64-15.28"/>
          </g>
        </g>
        <g class="cls-3">
          <g class="cls-9">
            <path class="cls-15" d="M1323.14,518.76c-18.68,31.91-48.98,56.88-86.27,65.4-23.15-47.52-13.55-104.15,16.89-144.91-20.08-15.49-42.13-28.06-65.46-37.37-13.98,12.55-30.79,21.94-49.7,26.49-6.88-13.75-10.6-28.36-11.63-43.05-18.81-2.79-37.98-3.56-57.2-2.33,40.75,41.59,78.84,87.03,94.37,108.83,138.97,195.05,18.23,362.43-50.99,434.05,31.21-2.97,62.42-11.4,92.31-25.8,141.13-67.95,197.6-242.29,117.69-381.31"/>
          </g>
        </g>
        <path d="M220.63,1238.69h-77.28l.61-4.24c6.26-2.22,9.49-5.76,9.7-10.61l-7.88-21.21c-9.7-15.76-22.27-27.73-37.73-35.91-15.45-8.18-32.27-11.46-50.46-9.85-5.25,13.74-9.49,24.55-12.73,32.43-3.64,8.89-7.17,18.39-10.61,28.49v.91c-.81,3.24-.91,6.02-.3,8.34.61,2.33,1.42,4.09,2.42,5.3l1.82,1.82.31,4.54H6.06c-1.82-.2-3.34-.3-4.54-.3H0l.91-4.85c5.86,0,10.71-3.84,14.54-11.52l.61-.91c4.65-9.09,9.9-20,15.76-32.73,5.86-13.13,15.61-34.7,29.25-64.7,13.64-30,22.07-48.54,25.3-55.61v-.31c2.02-5.86,2.78-10.71,2.27-14.54-.5-3.84-1.56-6.67-3.18-8.49l-2.12-3.03.3-21.52,9.7.3h2.12c1.82,0,3.84-.1,6.07-.3h8.49l80.01,193.96.3.3c2.42,4.85,6.06,8.79,10.91,11.82,4.85,3.03,9.09,4.95,12.73,5.76l5.15.91,1.52,5.76ZM95.16,1063.82c-6.46,14.54-18.19,43.54-35.16,86.98,15.15-1.01,29.5,1.31,43.04,6.97,13.54,5.66,25.36,14.04,35.46,25.15l-43.34-119.1Z"/>
        <path d="M540.07,1238.69h-77.28l.61-4.24c6.26-2.22,9.49-5.76,9.7-10.61l-7.88-21.21c-9.7-15.76-22.27-27.73-37.73-35.91-15.45-8.18-32.27-11.46-50.46-9.85-5.25,13.74-9.49,24.55-12.73,32.43-3.64,8.89-7.17,18.39-10.61,28.49v.91c-.81,3.24-.91,6.02-.3,8.34.61,2.33,1.42,4.09,2.42,5.3l1.82,1.82.31,4.54h-32.43c-1.82-.2-3.33-.3-4.54-.3h-1.52l.91-4.85c5.86,0,10.71-3.84,14.54-11.52l.61-.91c4.65-9.09,9.9-20,15.76-32.73,5.86-13.13,15.61-34.7,29.25-64.7,13.64-30,22.07-48.54,25.3-55.61v-.31c2.02-5.86,2.78-10.71,2.27-14.54-.5-3.84-1.56-6.67-3.18-8.49l-2.12-3.03.3-21.52,9.7.3h2.12c1.82,0,3.84-.1,6.07-.3h8.49l80.01,193.96.3.3c2.42,4.85,6.06,8.79,10.91,11.82,4.85,3.03,9.09,4.95,12.73,5.76l5.15.91,1.52,5.76ZM414.6,1063.82c-6.46,14.54-18.19,43.54-35.16,86.98,15.15-1.01,29.5,1.31,43.03,6.97,13.54,5.66,25.36,14.04,35.46,25.15l-43.34-119.1Z"/>
        <path d="M840.72,1239.3l-50.92-.3v-4.54c.41-.2.91-.55,1.52-1.06.61-.51,1.21-1.72,1.82-3.64.61-1.92-.1-4.29-2.12-7.12l-54.25-76.37c-5.05,0-10.61.1-16.67.3h-29.7c1.62,26.47,3.33,50.81,5.15,73.03v1.52c.2,4.04,1.01,7.07,2.42,9.09,1.42,2.02,2.73,3.03,3.94,3.03l1.82.3.61,5.15h-55.16l.61-5.15c.81,0,1.72-.11,2.73-.3,1.01-.2,2.47-1.37,4.4-3.49,1.92-2.12,2.88-5.1,2.88-8.94v-15.76c-.2-22.63-.4-47.58-.61-74.86-.4-27.08-.6-52.03-.6-74.85-.2-8.08-.31-14.95-.31-20.61-.4-3.03-1.41-5.3-3.03-6.82-1.62-1.51-3.03-2.27-4.24-2.27h-2.12l-.3-5.45h9.39c9.29,0,23.08.05,41.37.15,18.28.1,32.07.15,41.37.15,21.42-.6,38.09,2.53,50,9.4,12.93,7.27,21.41,17.58,25.46,30.91,4.04,14.14,3.54,29.6-1.51,46.37-7.28,24.24-25.06,37.27-53.34,39.09,13.74,19.6,21.62,30.61,23.64,33.04,15.15,17.37,26.87,30.3,35.16,38.79l1.52,1.51c4.24,4.45,7.88,7.83,10.91,10.15,3.03,2.32,5.05,3.49,6.06,3.49h1.52l.6,6.06ZM767.99,1134.28c6.06-3.13,10.61-7.63,13.64-13.49,3.03-5.86,5.1-12.02,6.21-18.49,1.11-6.47,1.77-14.75,1.97-24.85.2-15.15-4.8-27.63-15-37.43-10.2-9.8-21.06-14.5-32.57-14.09h-53.64c-1.41,30.31-1.11,64.96.91,103.95.2,1.21.35,2.98.46,5.3.1,2.33.15,4.1.15,5.31h30c8.89-.2,17.07-.3,24.55-.3,9.49-.81,17.27-2.78,23.33-5.91"/>
        <path d="M996.51,1032.61v6.97c.2,12.53.3,26.47.3,41.82s.11,29,.31,41.52v19.09c.2,8.29.3,14.1.3,17.43s.26,8.49.76,15.46c.51,6.97,1.16,11.92,1.97,14.85.81,2.93,2.02,6.97,3.64,12.12,1.61,5.15,3.63,8.99,6.06,11.52,2.42,2.53,5.4,5.3,8.94,8.33,3.54,3.03,7.73,5.36,12.58,6.97,4.85,1.62,10.41,2.93,16.67,3.94,22.63,3.03,34.32-3.54,47.09-16.67,11.83-12.17,16.36-35.36,17.58-66.07v-5.46c0-4.04.1-8.89.3-14.54.2-13.54.41-28.29.61-44.25,0-15.76-.81-32.93-2.42-51.52-.41-2.02-1.11-3.74-2.12-5.15-1.01-1.41-1.92-2.32-2.72-2.73l-1.52-.61-.3-5.15h28.99l-.31,4.24c-4.04.81-6.47,3.94-7.27,9.39-.2.61-.31,1.72-.31,3.33,0,.81-.1,1.31-.3,1.51-1.62,24.85-2.42,40.41-2.42,46.68-.2,15.96-.41,30.71-.61,44.25-.2,5.66-.3,10.51-.3,14.54v5.46c-.2,17.37-1.87,31.47-5,42.28-3.13,10.81-7.93,20.25-14.4,28.33-10.91,13.94-28.39,21.62-52.43,23.04-12.12.6-22.93-.4-32.43-3.03-9.49-2.63-17.22-6.67-23.18-12.12-5.96-5.46-10.96-11.32-15-17.58-4.04-6.26-7.02-13.63-8.94-22.12-1.92-8.49-3.23-16.22-3.94-23.19-.71-6.97-1.16-14.7-1.36-23.18v-19.1c-.2-12.73-.3-26.67-.3-41.82s-.1-29.09-.3-41.82v-5.46c-.8-2.62-1.97-4.6-3.49-5.91-1.51-1.31-2.78-2.07-3.79-2.27h-1.82l-.61-5.46h50.61l-.61,5.46c-4.04-.41-6.87,1.82-8.49,6.67"/>
        <path d="M1433.39,1024.73c-.91.41-2.27,1.67-4.09,3.79-1.82,2.12-2.93,4.8-3.34,8.03v.6c-.4,6.87-.61,11.92-.61,15.16,0,22.02.11,46.27.31,72.73,0,26.47.1,50.72.3,72.73,0,9.9-.2,19.5-.61,28.79l-.3,12.73c-87.69-88.09-138.1-139.01-157.7-159.22v51.33c.2,26.67.31,51.02.31,73.03,0,3.84.2,9.6.6,17.28v.61c.2,2.83,1.01,5.15,2.42,6.97,1.42,1.82,2.73,2.93,3.94,3.34l2.12.6,1.52,5.46h-30.81l.91-4.85,2.27-.76c.91-.3,2.22-1.56,3.94-3.79,1.72-2.22,2.78-4.95,3.18-8.18,0-.2.1-.4.3-.6.4-6.87.61-12.22.61-16.06,0-22.02-.1-46.37-.3-73.03,0-31.92-.1-55.87-.3-71.83l-.3-38.19c87.89,91.73,138.71,144.47,158.91,164.67-.2-16.57-.3-34.76-.3-61.02-.2-26.46-.31-50.61-.31-72.43,0-4.45-.2-10.51-.6-18.18-.4-2.42-1.31-4.45-2.73-6.06-1.41-1.62-2.73-2.63-3.94-3.03l-1.51-.61-1.82-5.76h30.8l-.61,5.16c-.61,0-1.37.2-2.27.6"/>
        <path d="M1670.86,1238.69h-54.25l.61-5.15c.61,0,1.37-.05,2.28-.15.91-.1,2.22-.91,3.93-2.42,1.72-1.51,2.78-3.79,3.18-6.82v-4.55c-.2-12.73-.41-26.77-.6-42.13-.2-17.38-.4-30.71-.6-40-16.17-21.42-33.04-45.06-50.61-70.92-6.07-8.89-11.32-16.57-15.76-23.03l-4.24-6.36c-2.63-3.23-5.2-5.76-7.72-7.58-2.53-1.82-4.4-2.83-5.61-3.03l-1.82-.6-.91-5.46h57.28l-.31,5.15c-.2,0-.55.05-1.06.16-.5.1-1.26.35-2.27.75-1.01.41-1.77.91-2.27,1.52-.51.6-.76,1.61-.76,3.03s.5,3.03,1.52,4.85v.3c3.84,5.46,6.87,9.9,9.09,13.34,5.05,7.68,10.55,15.66,16.52,23.94,5.96,8.28,12.28,16.93,18.94,25.91,6.67,8.99,7.59,11.27,9.2,13.29h.31c.4-.4.61-.71.61-.91,7.88-11.71,15.71-21.43,25.15-35.76,5.23-7.7,9.07-13.42,11.73-17.23,2.68-3.83,5.95-8.44,9.18-13.49,2.02-3.03,3.84-6.37,5.45-10,.81-3.24.96-5.61.46-7.12-.51-1.51-1.27-2.47-2.28-2.88l-1.52-.3.61-4.55h30.5l-.6,5.15c-4.24.81-8.39,3.44-12.43,7.88-1.62,1.61-3.94,4.54-6.97,8.79-12.13,17.98-20.51,30.41-25.15,37.27l-24.25,36.37c-1.21,18.59-.91,39,.91,61.22.61,5.46,2.22,19.9,4.85,43.34v.3c.61,3.84,1.72,6.82,3.33,8.94,1.62,2.12,3.03,3.29,4.24,3.49l1.82.3.31,5.15Z"/>
        <path d="M2000,1238.69h-77.28l.61-4.24c6.26-2.22,9.49-5.76,9.7-10.61l-7.88-21.21c-9.7-15.76-22.27-27.73-37.73-35.91-15.45-8.18-32.27-11.46-50.46-9.85-5.25,13.74-9.49,24.55-12.73,32.43-3.64,8.89-7.17,18.39-10.61,28.49v.91c-.81,3.24-.91,6.02-.3,8.34.61,2.33,1.42,4.09,2.42,5.3l1.82,1.82.31,4.54h-32.43c-1.82-.2-3.34-.3-4.54-.3h-1.52l.91-4.85c5.86,0,10.71-3.84,14.54-11.52l.61-.91c4.65-9.09,9.9-20,15.76-32.73,5.86-13.13,15.61-34.7,29.25-64.7,13.64-30,22.07-48.54,25.3-55.61v-.31c2.02-5.86,2.78-10.71,2.27-14.54-.5-3.84-1.56-6.67-3.18-8.49l-2.12-3.03.3-21.52,9.7.3h2.12c1.82,0,3.84-.1,6.07-.3h8.49l80.01,193.96.3.3c2.42,4.85,6.06,8.79,10.91,11.82,4.85,3.03,9.09,4.95,12.73,5.76l5.15.91,1.52,5.76ZM1874.53,1063.82c-6.46,14.54-18.19,43.54-35.16,86.98,15.15-1.01,29.5,1.31,43.03,6.97,13.54,5.66,25.36,14.04,35.46,25.15l-43.34-119.1Z"/>
        <path d="M127.08,871.49c0,.86-.52,1.28-1.56,1.39l-7.4.75c-1.18.11-1.82-.43-1.82-1.28v-8.01c0-4.28-2.34-6.21-7.54-6.21h-8.18c-5.2,0-7.54,1.93-7.54,6.21v47.89c0,4.26,2.34,6.21,7.54,6.21h8.18c5.2,0,7.54-1.93,7.54-6.21v-15.71h-9.35c-1.04,0-1.68-.54-1.56-1.39l.66-4.92c.12-.75.78-1.28,1.82-1.28h17.55c1.04,0,1.68.43,1.68,1.39v21.69c0,9.74-6.38,14.32-16.11,14.32h-13.12c-9.74,0-15.97-4.6-15.97-14.32v-47.45c0-9.72,6.23-14.32,15.97-14.32h13.12c9.74,0,16.11,4.6,16.11,14.32v6.94h-.02Z"/>
        <path d="M180.35,850.85c9.74,0,15.98,4.6,15.98,14.32v24.58c0,8.13-4.28,12.5-11.3,13.57v.75l13.25,20.08c.4.75,0,1.5-1.04,1.5h-8.32c-.9,0-1.82-.22-2.34-1.18l-12.47-19.46h-11.7v19.24c0,.96-.66,1.39-1.68,1.39h-7.79c-1.16,0-1.68-.43-1.68-1.39v-72.04c0-.96.52-1.39,1.68-1.39h27.41ZM162.42,858.76v38.37h15.2c5.2,0,7.54-1.93,7.54-6.21v-25.97c0-4.26-2.34-6.21-7.54-6.21h-15.2v.02Z"/>
        <path d="M220.11,924.29v-72.04c0-.96.52-1.39,1.68-1.39h38.58c1.04,0,1.56.54,1.42,1.39l-.9,5.33c-.26.75-.9,1.18-1.94,1.18h-27.67v24.9h21.83c1.04,0,1.56.53,1.3,1.39l-.9,5.35c-.14.75-.78,1.18-1.82,1.18h-20.39v26.18h29.11c1.04,0,1.56.54,1.42,1.39l-.9,5.33c-.26.75-.9,1.18-1.94,1.18h-37.16c-1.16,0-1.68-.43-1.68-1.39"/>
        <path d="M282.99,924.29v-72.04c0-.96.52-1.39,1.68-1.39h38.58c1.04,0,1.56.54,1.44,1.39l-.9,5.33c-.26.75-.92,1.18-1.96,1.18h-27.67v24.9h21.83c1.04,0,1.56.53,1.3,1.39l-.9,5.35c-.14.75-.78,1.18-1.82,1.18h-20.39v26.18h29.11c1.04,0,1.56.54,1.44,1.39l-.9,5.33c-.26.75-.92,1.18-1.96,1.18h-37.16c-1.16,0-1.68-.43-1.68-1.39"/>
        <path d="M356.52,924.29c0,.96-.52,1.39-1.56,1.39h-7.4c-1.18,0-1.68-.43-1.68-1.39v-72.04c0-.96.52-1.39,1.68-1.39h6.62c1.04,0,1.82.43,2.34,1.39l23.65,47.57h.9v-47.57c0-.96.52-1.39,1.68-1.39h7.4c1.04,0,1.56.43,1.56,1.39v72.04c0,.96-.52,1.39-1.56,1.39h-5.46c-1.04,0-1.82-.43-2.34-1.39l-24.94-49.91h-.91v49.91h.02Z"/>
        <path d="M446.43,850.85c9.74,0,15.98,4.6,15.98,14.32v24.58c0,8.13-4.28,12.5-11.3,13.57v.75l13.25,20.08c.4.75,0,1.5-1.04,1.5h-8.32c-.9,0-1.82-.22-2.34-1.18l-12.47-19.46h-11.7v19.24c0,.96-.66,1.39-1.68,1.39h-7.79c-1.16,0-1.68-.43-1.68-1.39v-72.04c0-.96.52-1.39,1.68-1.39h27.41ZM428.5,858.76v38.37h15.2c5.2,0,7.54-1.93,7.54-6.21v-25.97c0-4.26-2.34-6.21-7.54-6.21h-15.2v.02Z"/>
        <path d="M495.67,850.85c1.04,0,1.68.43,1.68,1.39v72.04c0,.97-.66,1.39-1.68,1.39h-7.79c-1.16,0-1.68-.43-1.68-1.39v-72.04c0-.96.52-1.39,1.68-1.39h7.79Z"/>
        <path d="M566.99,864.53v6.94c0,.86-.52,1.28-1.56,1.39l-7.4.75c-1.18.11-1.82-.43-1.82-1.28v-8.01c0-4.26-2.34-6.21-7.54-6.21h-8.18c-5.2,0-7.54,1.93-7.54,6.21v47.89c0,4.26,2.34,6.21,7.54,6.21h8.18c5.2,0,7.54-1.93,7.54-6.21v-7.9c0-.86.64-1.28,1.56-1.39l7.54-.75c1.04-.11,1.68.43,1.68,1.28v8.55c0,9.74-6.37,14.32-16.11,14.32h-13.13c-9.74,0-15.97-4.58-15.97-14.32v-47.46c0-9.72,6.24-14.32,15.97-14.32h13.13c9.74,0,16.11,4.6,16.11,14.32"/>
        <path d="M634.04,925.68h-7.8c-1.04,0-1.68-.43-1.68-1.39v-32.71h-23.91v32.71c0,.96-.66,1.39-1.68,1.39h-7.79c-1.16,0-1.68-.43-1.68-1.39v-72.04c0-.97.52-1.39,1.68-1.39h7.79c1.04,0,1.68.43,1.68,1.39v31.43h23.91v-31.43c0-.97.66-1.39,1.68-1.39h7.8c1.18,0,1.68.43,1.68,1.39v72.04c0,.96-.52,1.39-1.68,1.39"/>
        <g>
          <path d="M1134.04,1443.23l6.18-.67c5.86-.67,7.86-1.84,7.86-2.84v-95.94c0-1.17-1.01-1.5-9.52-2.33l-4.35-.5-.5-1.17h44.3c32.43,0,43.78,9.03,43.78,23.23,0,11.36-10.02,19.39-30.91,22.56v.5c23.07,1.5,36.44,12.86,36.44,28.24,0,17.88-14.88,29.92-46.63,29.92h-47.14l.5-1ZM1173.65,1386.4c15.55.17,25.91-7.85,25.91-22.39s-9.88-22.07-25.57-22.07l-4.35.17v44.29h4.01ZM1180.5,1442.06c14.54-1,24.23-12.37,24.23-26.74,0-16.38-12.36-27.4-28.41-27.4-2.84,0-5,.17-6.68.49v51.32l8.7,2.84s3.01-.5,2.17-.5Z"/>
          <path d="M1236.06,1476.83c0-5.01,4.18-9.53,9.69-9.53,6.85,0,10.19,4.84,11.03,9.53,4.35-.84,6.68-5.18,9.69-13.71l6.18-17.38h-2.17l-27.74-62.01c-3.51-7.86-4.52-9.19-9.86-9.7l-2.69-.17-.49-1h41.95l-.5,1-2.84.17c-6.68.5-7.69,2.34-5.19,8.03l17.72,41.12,10.19-28.41c6.03-16.72,4.69-19.22-6.68-20.56l-2.33-.34-.5-1h29.59l-.5,1-2.67.34c-7.69.67-8.36,2.85-15.38,22.07l-17.72,47.97-6.85,20.39c-4.85,15.04-11.03,22.39-20.55,22.39-5.53,0-11.37-3.51-11.37-10.19Z"/>
          <path d="M1349.95,1443.23l6.52-.67c5.86-.67,7.52-1.84,7.52-2.84v-95.94c0-1.17-.67-1.67-9.18-2.5l-4.69-.5-.5-1h85.91l1.68,32.09h-1.01l-.84-1.84c-7.69-20.39-15.87-28.58-36.1-28.58l-13.7.33v48.81l7.19-.34c14.71-.49,21.23-4,24.73-15.04l1.01-3.18,1.18.17-4.35,39.95-1.18-.17-.17-2.84c-1.01-12.2-5.68-16.38-22.74-16.55l-5.68-.17v47.8c0,1.18.84,1.84,9.35,2.51l7.19.5.5,1h-53.15l.5-1Z"/>
          <path d="M1438.44,1443.23l2.5-.17c5.19-.34,7.02-.67,7.02-2.68v-46.8c0-10.36-1.16-11.86-6.85-13.2l-3.85-.84.17-.66,29.76-8.03-.5,26.41h.34c4.85-17.38,11.87-26.74,22.57-26.74,6.68,0,12.02,4.35,12.02,11.2,0,5.01-4.16,10.36-10.19,10.36s-10.53-4.51-11.54-11.03c-5.68.84-9.02,7.86-13.03,22.91v36.6c0,1.33,1.34,2.17,8.87,2.51l3.68.17.49,1h-41.95l.5-1Z"/>
          <path d="M1505.66,1408.46c0-21.06,16.54-38.11,40.29-38.11s39.61,16.72,39.61,37.61-16.39,38.61-40.29,38.61-39.61-17.05-39.61-38.11ZM1564.33,1409.3c0-17.39-3.34-28.09-8.53-33.27-2.67-2.5-5.68-4.17-10.19-4.17-12.86,0-18.89,16.04-18.89,35.26,0,17.72,3.17,28.41,8.36,33.76,2.84,2.84,6.01,4.18,10.36,4.18,12.21,0,18.89-15.89,18.89-35.77Z"/>
          <path d="M1594.48,1443.23l2.5-.17c5.19-.34,7.02-.67,7.02-2.68v-46.8c0-10.36-1.16-11.86-6.85-13.2l-3.85-.84.17-.66,29.76-8.03-.5,14.37.34.17c7.19-6.19,17.38-14.88,28.75-14.88,5.51,0,9.69,1.84,13.2,5.35,3.85,3.85,5.36,10.86,5.36,18.39v46.3c0,1.01.34,1.67,8.51,2.51l1.85.17.5,1h-39.45l.5-1,3.01-.17c5.84-.34,6.18-1.34,6.18-2.68v-43.79c0-10.36-5.17-14.21-13.87-14.21-6.52,0-11.03,2.33-14.71,5.18v53.15c0,1.33.84,1.84,7.36,2.34l2.5.17.34,1h-39.11l.5-1Z"/>
          <path d="M1696.65,1425.35l.84-43.79-13.53-.17,3.34-5.52,28.08-20.72.67.17-.17,17.38,25.07.17-2.84,8.03h-22.4l-.84,42.28c-.17,9.36,3.51,13.7,12.21,13.7,6.52,0,10.7-2.34,13.87-5.18l.67.67c-7.52,7.68-15.55,13.7-25.41,13.7-13.37,0-19.73-6.52-19.56-20.72Z"/>
          <path d="M1747.16,1443.23l2.52-.17c5.17-.34,6.52-.67,6.52-2.68v-86.4c0-10.2-1.18-11.54-6.85-13.04l-3.68-1.01.17-.66,29.4-7.36v108.81c0,1.33,1.18,1.84,7.69,2.34l2.18.17.49,1h-38.94l.5-1Z"/>
          <path d="M1792.83,1443.23l2.5-.17c5.19-.34,7.02-.67,7.02-2.68v-46.8c0-10.36-1.16-11.86-6.85-13.2l-3.85-.84.17-.66,29.42-8.03v69.86c0,1.33,1.01,1.67,8.53,2.34l1.83.17.5,1h-39.78l.5-1ZM1798.84,1347.79c0-5.35,4.01-11.53,11.87-11.53s11.87,6.18,11.87,11.53-4.01,11.54-11.87,11.54-11.87-6.19-11.87-11.54Z"/>
          <path d="M1839.33,1443.23l2.5-.17c5.19-.34,7.02-.67,7.02-2.68v-46.8c0-10.36-1.16-11.86-6.85-13.2l-3.85-.84.17-.66,29.76-8.03-.5,14.37.34.17c7.19-6.19,17.38-14.88,28.75-14.88,5.51,0,9.69,1.84,13.2,5.35,3.85,3.85,5.36,10.86,5.36,18.39v46.3c0,1.01.34,1.67,8.51,2.51l1.85.17.5,1h-39.45l.5-1,3.01-.17c5.84-.34,6.18-1.34,6.18-2.68v-43.79c0-10.36-5.17-14.21-13.87-14.21-6.52,0-11.03,2.33-14.71,5.18v53.15c0,1.33.84,1.84,7.36,2.34l2.5.17.34,1h-39.11l.5-1Z"/>
          <path d="M1931.64,1409.97c0-22.39,16.54-39.77,38.6-39.77,19.23,0,28.58,11.7,28.58,23.56,0,1.01-.17,1.84-.34,2.85,0,0-41.61-.34-46.3-.5-.34,2.17-.34,5.85-.34,8.02,0,18.56,10.38,30.92,25.41,30.92,9.54,0,16.39-3.51,21.56-13.04l1.18.5c-7.19,15.38-17.72,24.24-33.6,24.24-20.05,0-34.76-16.04-34.76-36.78ZM1980.27,1394.26c0-10.36-2.67-22.07-11.85-22.07-7.52,0-14.21,9.36-15.89,22.23l27.74-.17Z"/>
        </g>
      </g>
    </g>
  </g>
</svg>